<?xml version="1.0" standalone="no"?>
<!DOCTYPE svg PUBLIC "-//W3C//DTD SVG 20010904//EN"
 "http://www.w3.org/TR/2001/REC-SVG-20010904/DTD/svg10.dtd">
<svg version="1.0" xmlns="http://www.w3.org/2000/svg"
 width="700.000000pt" height="700.000000pt" viewBox="0 0 700.000000 700.000000"
 preserveAspectRatio="xMidYMid meet">
<metadata>
Created by potrace 1.11, written by Peter Selinger 2001-2013
</metadata>
<g transform="translate(0.000000,700.000000) scale(0.100000,-0.100000)"
fill="#000000" stroke="none">
<path d="M3298 6995 c-2 -1 -41 -5 -88 -9 -100 -7 -225 -22 -295 -36 -27 -5
-61 -12 -75 -14 -198 -36 -503 -126 -657 -193 -21 -9 -40 -17 -43 -18 -46 -14
-270 -126 -395 -198 -342 -199 -590 -404 -896 -743 -168 -186 -384 -518 -513
-789 -94 -195 -207 -516 -241 -683 -2 -9 -8 -37 -14 -62 -11 -49 -13 -63 -35
-195 -33 -199 -40 -299 -40 -550 -1 -239 10 -397 39 -565 34 -196 76 -362 136
-545 27 -82 56 -163 63 -180 8 -16 24 -55 36 -85 27 -69 139 -292 193 -385
185 -318 461 -652 737 -890 30 -26 66 -57 80 -69 131 -113 400 -289 602 -394
366 -190 820 -331 1183 -367 39 -4 79 -10 90 -12 52 -13 558 -10 680 3 371 40
727 131 1010 258 28 13 79 36 115 52 36 15 81 37 100 47 19 11 73 40 120 65
403 213 843 601 1132 997 288 394 518 908 603 1345 57 291 70 424 69 710 0
188 -6 331 -19 420 -3 19 -7 56 -10 81 -3 25 -7 54 -9 65 -2 10 -11 60 -21
109 -98 525 -337 1052 -670 1480 -43 55 -81 102 -84 105 -3 3 -35 38 -70 78
-107 123 -282 290 -404 387 -21 17 -48 38 -60 49 -12 10 -57 44 -100 75 -393
283 -855 487 -1324 585 -98 21 -243 43 -393 61 -54 7 -526 16 -532 10z"/>
</g>
</svg>
